<?xml version="1.0" standalone="no"?>
<!DOCTYPE svg PUBLIC "-//W3C//DTD SVG 20010904//EN"
 "http://www.w3.org/TR/2001/REC-SVG-20010904/DTD/svg10.dtd">
<svg version="1.0" xmlns="http://www.w3.org/2000/svg"
 width="454.000000pt" height="88.000000pt" viewBox="0 0 454.000000 88.000000"
 preserveAspectRatio="xMidYMid meet">
<metadata>
Created by potrace 1.15, written by Peter Selinger 2001-2017
</metadata>
<g transform="translate(0.000000,88.000000) scale(0.100000,-0.100000)"
fill="#000000" stroke="none">
<path d="M81 867 c-19 -7 -44 -25 -55 -40 -20 -27 -21 -42 -24 -355 -2 -180 0
-346 3 -369 4 -29 16 -53 36 -73 l31 -30 2199 0 2199 0 32 29 33 29 0 375 0
375 -24 26 c-14 14 -41 30 -60 36 -56 15 -4326 12 -4370 -3z"/>
</g>
</svg>
