<?xml version="1.0" standalone="no"?>
<!DOCTYPE svg PUBLIC "-//W3C//DTD SVG 20010904//EN"
 "http://www.w3.org/TR/2001/REC-SVG-20010904/DTD/svg10.dtd">
<svg version="1.0" xmlns="http://www.w3.org/2000/svg"
 width="454.000000pt" height="88.000000pt" viewBox="0 0 454.000000 88.000000"
 preserveAspectRatio="xMidYMid meet">
<metadata>
Created by potrace 1.15, written by Peter Selinger 2001-2017
</metadata>
<g transform="translate(0.000000,88.000000) scale(0.100000,-0.100000)"
fill="#000000" stroke="none">
<path d="M84 869 c-16 -5 -41 -20 -55 -35 l-24 -26 0 -375 0 -375 33 -29 32
-29 2199 0 2199 0 31 30 c20 20 32 44 36 73 3 23 5 189 3 369 -3 313 -4 328
-24 355 -11 15 -36 33 -55 40 -41 14 -4325 17 -4375 2z"/>
</g>
</svg>
