<svg height="512" viewBox="0 0 56 56" width="512" xmlns="http://www.w3.org/2000/svg"><g id="Page-1" fill="none" fill-rule="evenodd"><g id="018---Cross" fill="rgb(0,0,0)" fill-rule="nonzero"><path id="Shape" d="m0 3v50c.00483299 1.6548482 1.34515177 2.995167 3 3h44c1.6548482-.004833 2.995167-1.3451518 3-3v-50c-.004833-1.65484823-1.3451518-2.99516701-3-3h-44c-1.65484823.00483299-2.99516701 1.34515177-3 3zm18.78 24.11-11.56-11.55c-.23349074-.2378518-.36605376-.5567196-.37-.89.00015409-.3340494.13328959-.6542942.37-.89l3.56-3.56c.4921592-.49002032 1.2878408-.49002032 1.78 0l11.55 11.56c.4921592.4900203 1.2878408.4900203 1.78 0l11.55-11.56c.4921592-.49002032 1.2878408-.49002032 1.78 0l3.56 3.56c.2367104.2357058.3698459.5559506.37.89-.0039462.3332804-.1365093.6521482-.37.89l-11.56 11.55c-.4900203.4921592-.4900203 1.2878408 0 1.78l11.56 11.55c.2334907.2378518.3660538.5567196.37.89-.0001541.3340494-.1332896.6542942-.37.89l-3.56 3.56c-.4921592.4900203-1.2878408.4900203-1.78 0l-11.55-11.56c-.4921592-.4900203-1.2878408-.4900203-1.78 0l-11.55 11.56c-.4921592.4900203-1.2878408.4900203-1.78 0l-3.56-3.56c-.23671041-.2357058-.36984591-.5559506-.37-.89.00394624-.3332804.13650926-.6521482.37-.89l11.56-11.55c.4900203-.4921592.4900203-1.2878408 0-1.78z"/><path id="Shape" d="m56 3c-.004833-1.65484823-1.3451518-2.99516701-3-3h-2.03c.6648098.8590309 1.0269367 1.91376946 1.03 3v50c-.0030633 1.0862305-.3651902 2.1409691-1.03 3h2.03c1.6548482-.004833 2.995167-1.3451518 3-3z"/></g></g></svg>